<?xml version="1.0" encoding="UTF-8" standalone="no"?>
<!DOCTYPE svg PUBLIC "-//W3C//DTD SVG 1.1//EN" "http://www.w3.org/Graphics/SVG/1.1/DTD/svg11.dtd">
<svg version="1.1" xmlns="http://www.w3.org/2000/svg" xmlns:xlink="http://www.w3.org/1999/xlink" preserveAspectRatio="xMidYMid meet" viewBox="-0.9999976049999999 -1.0000034999999343 24.000000000000004 24" width="20" height="20"><defs><path d="M0 10C0 15.52 4.48 20 10 20C15.52 20 20 15.52 20 10C20 4.48 15.52 0 10 0C4.48 0 0 4.48 0 10ZM2.17 10C2.17 5.68 5.68 2.17 10 2.17C14.32 2.17 17.83 5.68 17.83 10C17.83 14.32 14.32 17.83 10 17.83C5.68 17.83 2.17 14.32 2.17 10ZM8.04 5.82L8.04 10.26L5.6 10.26L10 14.4L14.4 10.26L11.96 10.26L11.96 5.82L8.04 5.82Z" id="bO5cNkXwF"></path></defs><g><g><use xlink:href="#bO5cNkXwF" opacity="1" fill="#000000" fill-opacity="1"></use><g><use xlink:href="#bO5cNkXwF" opacity="1" fill-opacity="0" stroke="#000000" stroke-width="1" stroke-opacity="0"></use></g></g></g></svg>