<?xml version="1.0" encoding="utf-8"?>
<svg viewBox="64.616 353.496 128 128.003" xmlns="http://www.w3.org/2000/svg" xmlns:bx="https://boxy-svg.com">
  <g>
    <path d="M 116.964 405.844 m -52.348 0 a 52.348 52.348 0 1 0 104.696 0 a 52.348 52.348 0 1 0 -104.696 0 Z M 116.964 405.844 m -31.669 0 a 31.669 31.669 0 0 1 63.338 0 a 31.669 31.669 0 0 1 -63.338 0 Z" style="fill: rgb(211, 0, 45);" bx:shape="ring 116.964 405.844 31.669 31.669 52.348 52.348 1@dbf60264"/>
    <circle style="fill: rgb(211, 0, 45);" cx="178.821" cy="367.916" r="13.795"/>
    <path d="M 145.806 421.5 C 129.237 421.5 115.806 434.932 115.806 451.5 C 115.806 468.068 129.237 481.499 145.806 481.499 C 162.373 481.499 175.806 468.068 175.806 451.5 C 175.806 434.932 162.373 421.5 145.806 421.5 Z M 145.806 474.977 C 132.837 474.977 122.327 464.466 122.327 451.5 C 122.327 438.535 132.837 428.022 145.806 428.022 C 158.774 428.022 169.284 438.535 169.284 451.5 C 169.284 464.466 158.774 474.977 145.806 474.977 Z M 151.675 438.946 L 139.935 438.946 L 139.935 452.283 L 132.598 452.283 L 145.806 464.707 L 159.012 452.283 L 151.675 452.283 L 151.675 438.946 Z" id="path5643" style="fill: rgb(0, 236, 31);"/>
  </g>
</svg>