<svg viewBox="198.187 152.327 20 24" xmlns="http://www.w3.org/2000/svg"><path d="m12 0c-4.992 0-10 1.242-10 3.144 0 .406 3.556 18.488 3.633 18.887 1.135 1.313 3.735 1.969 6.334 1.969 2.601 0 5.199-.656 6.335-1.969.081-.404 3.698-18.468 3.698-18.882 0-2.473-7.338-3.149-10-3.149zm-3.403 13.581-.492-.323 1.824-.008.78 1.667-.506-.32c-.723 1.146-1.027 1.764-.796 2.481-1.823-1.798-1.622-2.182-.81-3.497zm.622-1.304.781-1.418c.195-.38 1.251-.075 1.688.899l-.797 1.445zm2.673 5.175h-1.729c-.427.013-.672-1.061-.031-1.915h1.761v1.915zm.058-4.886.524-.289c-.652-1.188-1.044-1.753-1.781-1.898 2.451-.729 2.593-.41 3.445.981l.521-.275-.79 1.654zm3.059.005.911 1.474c.236.355-.546 1.129-1.607 1.035l-.928-1.501zm-1.549 4.846-.004.583-1.028-1.616 1.054-1.47-.006.6c1.354.011 2.037-.055 2.524-.63-.565 2.5-.942 2.533-2.54 2.533zm-1.409-12.27c-4.211 0-7.625-.746-7.625-1.667s3.414-1.667 7.625-1.667 7.624.746 7.624 1.667-3.413 1.667-7.624 1.667z" transform="translate(196.187134 152.327484)"/></svg>